<?xml version="1.0" encoding="UTF-8"?>
<svg id="Layer_2" data-name="Layer 2" xmlns="http://www.w3.org/2000/svg" viewBox="0 0 48.49 48.49">
  <defs>
    <style>
      .cls-1 {
        fill: #99f;
      }

      .cls-2 {
        fill: #02015c;
      }
    </style>
  </defs>
  <g id="_àð_1" data-name="˜àð_1">
    <g>
      <rect class="cls-2" width="48.49" height="48.49" rx="12.35" ry="12.35"/>
      <g id="Layer_2-2" data-name="Layer 2">
        <g id="Outlined_Mnemonics_Logos" data-name="Outlined Mnemonics Logos">
          <g id="Ae">
            <path class="cls-1" d="M19.03,30.72h-9.09c-.21.18-1.72,6.53-2.32,6.11,0,0-4.61,0-4.61,0-.26,0-.35-.14-.28-.43.46-1.22,8.81-25,8.47-25.22.21.13,6.71-.27,6.64.2-.21.4,9.73,25.38,8.7,25.45,0,0-5.12,0-5.12,0-.5.39-2.22-5.98-2.4-6.11ZM11.35,25.86h6.22c-1-3.27-2.24-6.88-3.11-10.19h-.04c-.77,3.38-2,6.94-3.07,10.19Z"/>
            <path class="cls-1" d="M41.26,28.48h-7.75c.52,5.01,6.8,4.77,10.39,3.41.13-.1.2-.04.2.2v3.74c-.79,1.48-4.53,1.38-6.14,1.49-9.32.66-12.77-10.79-7.52-17.18,3.72-4.87,13.22-4.03,14.88,2.38.6,1.71.53,3.88.31,5.59-.41.75-3.38.34-4.37.37ZM33.51,24.89c1.37-.12,5.95.27,7.12-.21,0-4.74-6.97-4.3-7.12.21Z"/>
          </g>
        </g>
      </g>
    </g>
  </g>
</svg>