<?xml version="1.0" encoding="UTF-8"?>
<svg id="Layer_2" data-name="Layer 2" xmlns="http://www.w3.org/2000/svg" viewBox="0 0 48.51 48.76">
  <defs>
    <style>
      .cls-1 {
        fill: #320101;
      }

      .cls-2 {
        fill: #ff9a00;
      }
    </style>
  </defs>
  <g id="_àð_1" data-name="˜àð_1">
    <g>
      <path class="cls-1" d="M36.14,48.76H12.35c-6.82,0-12.35-5.53-12.35-12.35V12.62C0,5.8,5.53.27,12.35.27h23.79c8.48-1.75,12.63,5.24,12.35,12.35v23.79c0,6.82-5.53,12.35-12.35,12.35Z"/>
      <g id="Layer_2-2" data-name="Layer 2">
        <g id="Outlined_Mnemonics_Logos" data-name="Outlined Mnemonics Logos">
          <g id="Ai">
            <path class="cls-2" d="M24.33,31.84h-8.58c-.19.17-1.62,6.15-2.19,5.75,0,0-4.34,0-4.34,0-.25,0-.33-.14-.26-.41.54-1.4,8.17-23.35,7.99-23.91.2.12,6.33-.25,6.27.19-.2.37,9.18,24.07,8.21,24.13,0,0-4.83,0-4.83,0-.47.37-2.09-5.63-2.26-5.75ZM17.09,27.17h5.87c-.94-3.08-2.11-6.49-2.93-9.62h-.04c-.73,3.19-1.89,6.54-2.9,9.62h0Z"/>
            <path class="cls-2" d="M36.66,17.22c-3.76.15-3.67-5.99.07-5.79,3.89-.2,3.67,6.05-.07,5.79ZM34.1,37.23v-17.75c0-.22.1-.33.3-.33h4.57c.2,0,.3.11.3.33v17.75c0,.25-.1.37-.3.37h-4.53c-.22,0-.33-.12-.33-.37Z"/>
          </g>
        </g>
      </g>
    </g>
  </g>
</svg>