<?xml version="1.0" encoding="UTF-8"?>
<svg id="Layer_2" data-name="Layer 2" xmlns="http://www.w3.org/2000/svg" viewBox="0 0 48.49 48.49">
  <defs>
    <style>
      .cls-1 {
        fill: #3f6;
      }

      .cls-2 {
        fill: #043301;
      }
    </style>
  </defs>
  <g id="_àð_1" data-name="˜àð_1">
    <g>
      <rect class="cls-2" width="48.49" height="48.49" rx="12.35" ry="12.35"/>
      <g id="Outlined_Mnemonics_Logos" data-name="Outlined Mnemonics Logos">
        <g id="Dn">
          <path class="cls-1" d="M5.24,35.65c.22-.28-.43-23.12.23-23.13,4.26-.06,10.52-.68,14.17,1.36,7.73,3.7,7.45,16.36.04,20.35-2.86,1.8-6.46,1.95-9.75,1.85-.94-.16-4.75.37-4.69-.43ZM10.2,16.83v14.87c5.34.77,10.15-1.89,9.95-7.76.24-5.82-4.95-7.8-9.95-7.11h0Z"/>
          <path class="cls-1" d="M27.51,35.69c0-.65.02-14.55-.02-14.73.13-.61-.45-2.79.13-2.8h3.74c.71-.04.71.95.83,1.47,3.04-2.79,9.1-2.52,10.56,1.81,1.01,2.13.36,11.75.54,14.24,0,.22-.1.32-.29.32h-4.35c-.21.03-.39-.15-.36-.36,0,0,0-10.2,0-10.2.34-3.46-3.62-4.3-5.78-2.19v12.43c0,.22-.1.32-.29.32h-4.38c-.19.03-.35-.14-.32-.32Z"/>
        </g>
      </g>
    </g>
  </g>
</svg>