<?xml version="1.0" encoding="UTF-8"?><svg id="Layer_1" xmlns="http://www.w3.org/2000/svg" viewBox="0 0 398.19 72.63"><defs><style>.cls-1{fill:#fff;}.cls-1,.cls-2{stroke-width:0px;}.cls-2{fill:#ed1968;}</style></defs><path class="cls-2" d="M39.7,64.14h-13.4c-1.12,0-1.89.77-1.89,1.88v4.72c0,1.11.77,1.89,1.89,1.89h13.4c1.11,0,1.88-.77,1.88-1.89v-4.71c0-1.12-.77-1.89-1.88-1.89"/><path class="cls-1" d="M105.56,62.08c0,1.11-.77,1.89-1.88,1.89h-5.66c-1.11,0-1.88-.77-1.88-1.89V5.83c0-1.12.77-1.89,1.88-1.89h15.35c9.52,0,17.5,5.32,17.5,14.23v8.66c0,7.37-5.92,16.98-17.5,16.98h-7.8v18.26ZM105.56,35.42h6.35c4.72,0,9.52-2.06,9.52-8.58v-6.43c0-6.52-4.63-8.06-9.6-8.06h-6.26v23.07Z"/><path class="cls-1" d="M166.97,4.12c1.12,0,1.89.77,1.89,1.89v5.23c0,1.11-.77,1.89-1.89,1.89h-19.55v15.52h18.01c1.11,0,1.89.77,1.89,1.89v4.72c0,1.11-.77,1.89-1.89,1.89h-18.01v18.01h19.55c1.12,0,1.89.77,1.89,1.88v5.23c0,1.2-.77,1.89-1.89,1.89h-27.1c-1.12,0-1.89-.77-1.89-1.89V6c0-1.11.77-1.89,1.89-1.89h27.1Z"/><path class="cls-1" d="M187.49,62.25c0,1.12-.77,1.89-1.89,1.89h-5.66c-1.11,0-1.88-.77-1.88-1.89V6c0-1.11.77-1.89,1.88-1.89h15.35c9.6,0,17.49,5.49,17.49,14.41v7.89c0,8.4-3.34,12.78-9.69,15.61l10.12,19.64c.68,1.29.34,2.49-.77,2.49h-6.86c-1.11,0-2.49-.86-2.91-1.8l-9.09-18.95h-6.09v18.87ZM187.49,34.9h7.29c3.6,0,8.58-1.97,8.58-8.49v-5.66c0-6.52-4.63-8.23-9.69-8.23h-6.17v22.38Z"/><path class="cls-1" d="M270.4,4.12c1.12,0,1.89.77,1.89,1.89v5.23c0,1.11-.77,1.89-1.89,1.89h-19.55v15.52h18.01c1.11,0,1.88.77,1.88,1.89v4.72c0,1.11-.77,1.89-1.88,1.89h-18.01v18.01h19.55c1.12,0,1.89.77,1.89,1.88v5.23c0,1.2-.77,1.89-1.89,1.89h-27.09c-1.12,0-1.89-.77-1.89-1.89V6c0-1.11.77-1.89,1.89-1.89h27.09Z"/><path class="cls-1" d="M360.26,21.17c0,1.11-.77,1.88-1.88,1.88h-5.66c-1.12,0-1.89-.77-1.89-1.88v-.94c0-7.11-6-8.74-9.17-8.74s-9.17,1.63-9.17,9.77v25.38c0,8.15,6,9.78,9.17,9.78,2.66,0,9.17-1.63,9.17-8.75v-.86c0-1.12.77-1.89,1.89-1.89h5.66c1.11,0,1.88.77,1.88,1.89v1.54c0,10.72-7.72,17.49-18.26,17.49s-18.95-6.78-18.95-17.49v-28.81c0-10.72,8.74-17.49,18.61-17.49s18.61,6.77,18.61,17.49v1.63Z"/><path class="cls-1" d="M396.31,4.12c1.11,0,1.88.77,1.88,1.89v5.23c0,1.11-.77,1.89-1.88,1.89h-19.55v15.52h18.01c1.12,0,1.89.77,1.89,1.89v4.72c0,1.11-.77,1.89-1.89,1.89h-18.01v18.01h19.55c1.11,0,1.88.77,1.88,1.88v5.23c0,1.2-.77,1.89-1.88,1.89h-27.1c-1.11,0-1.89-.77-1.89-1.89V6c0-1.11.77-1.89,1.89-1.89h27.1Z"/><path class="cls-1" d="M229.79,4.12h-5.66c-1.11,0-1.89.77-1.89,1.89v56.25c0,1.11.77,1.89,1.89,1.89h5.66c1.11,0,1.89-.77,1.89-1.89V6c0-1.12-.77-1.89-1.89-1.89"/><path class="cls-1" d="M315.02,6c0-1.11-.43-1.88-1.54-1.88h-5.56c-1.11,0-1.89.77-1.89,1.88v36.95l-16.12-36.95c-.49-.99-.84-1.81-1.92-1.87-.05,0-.09-.01-.14-.01h-5.21c-1.11,0-1.89.77-1.89,1.88h0v56.25c0,.98.72,1.89,1.8,1.89h5.29c1.12,0,1.89-.77,1.89-1.89V25.45l15.27,36.21c.34.89,1.64,2.49,2.91,2.49h5.3c1.11,0,1.8-.77,1.8-1.89V6h0Z"/><path class="cls-1" d="M73.85,32.67l15.52,29.58c.68.94.08,1.89-1.03,1.89h-7.97c-1.2,0-1.97-.94-2.66-1.89l-10.55-21.44-10.97,21.44c-.69.94-1.2,1.89-2.31,1.89h-7.63c-1.2,0-1.97-.94-1.29-1.89l16.12-29.67-15.26-26.58c-.69-.94-.09-1.89,1.02-1.89h8.83c1.12,0,1.54.94,2.23,1.89l9.69,19.38,9.86-19.38c.69-.94,1.72-1.89,2.83-1.89h7.03c1.2,0,1.8.94,1.2,1.89l-14.66,26.67Z"/><path class="cls-1" d="M12.17,10.98h7.2c1.11,0,1.88-.77,1.88-1.89V1.89c0-1.11-.77-1.89-1.88-1.89h-7.2c-1.11,0-1.89.77-1.89,1.89v7.2c0,1.11.77,1.89,1.89,1.89"/><path class="cls-1" d="M19.38,64.14H1.89c-1.12,0-1.89-.77-1.89-1.89v-4.71c0-1.12.77-1.89,1.89-1.89h9.95v-25.9h-7.37c-1.11,0-1.89-.77-1.89-1.89v-4.72c0-1.11.77-1.88,1.89-1.88h14.92c1.11,0,1.88.77,1.88,1.88v39.1c0,1.12-.77,1.89-1.89,1.89"/></svg>