<?xml version="1.0" encoding="UTF-8"?>
<svg id="Layer_2" data-name="Layer 2" xmlns="http://www.w3.org/2000/svg" viewBox="0 0 48.49 48.49">
  <defs>
    <style>
      .cls-1 {
        fill: #99f;
      }

      .cls-2 {
        fill: #02015c;
      }
    </style>
  </defs>
  <g id="_àð_1" data-name="˜àð_1">
    <g>
      <rect class="cls-2" width="48.49" height="48.49" rx="12.35" ry="12.35"/>
      <g id="Layer_2-2" data-name="Layer 2">
        <g id="Outlined_Mnemonics_Logos" data-name="Outlined Mnemonics Logos">
          <g id="Pr">
            <path class="cls-1" d="M7.22,37.02V11.58c.17-.58,1.02-.14,1.63-.3,4.93-.02,10.95-1.04,14.68,2.67,2.91,2.76,3.07,8.28.89,11.3-2.62,3.78-7.56,4.03-11.84,3.81-.14.16.32,8.55-.27,8.28-.1,0-4.69,0-4.8,0-.2,0-.3-.1-.3-.32ZM12.6,16.08v8.3c3.14.26,8.04.02,7.91-4.25.19-4.22-4.93-4.34-7.91-4.05h0Z"/>
            <path class="cls-1" d="M29.36,17.52h4.33c.98.29.7,1.82.84,2.67,1.29-1.57,4.86-3.86,6.75-2.82,0,.11,0,4.81,0,4.92,0,.2-.12.27-.4.27-2.07.01-4.47.31-6.01,1.83v12.61c0,.25-.1.35-.32.35h-4.87c-.24.03-.43-.16-.4-.4.14-4.12-.21-15.65,0-19.43,0-.02.05-.02.07,0h0Z"/>
          </g>
        </g>
      </g>
    </g>
  </g>
</svg>