<?xml version="1.0" encoding="UTF-8"?>
<svg id="Layer_2" data-name="Layer 2" xmlns="http://www.w3.org/2000/svg" viewBox="0 0 48.49 48.49">
  <defs>
    <style>
      .cls-1 {
        fill: #011e39;
      }

      .cls-2 {
        fill: #31a8ff;
      }
    </style>
  </defs>
  <g id="_àð_1" data-name="˜àð_1">
    <g>
      <rect class="cls-1" width="48.49" height="48.49" rx="12.35" ry="12.35"/>
      <g id="Layer_2-2" data-name="Layer 2">
        <g id="Outlined_Mnemonics_Logos" data-name="Outlined Mnemonics Logos">
          <g id="Ps">
            <path class="cls-2" d="M6.76,36.49V11.56c.11-.57,1.02-.15,1.6-.29,4.83.02,10.76-1,14.42,2.63,2.87,2.69,2.99,8.09.88,11.04-2.58,3.72-7.41,3.91-11.63,3.73-.13.16.31,8.39-.26,8.14-.1,0-4.64,0-4.73,0-.18,0-.27-.1-.27-.31ZM12.03,15.97v8.13c3.08.23,7.88,0,7.77-4.19.16-4.11-4.85-4.29-7.77-3.94h0Z"/>
            <path class="cls-2" d="M40.19,22.62c-1.43-.86-8.48-2.51-7.22.82,2.46,2.09,6.52,2.11,8.18,5.23,1.5,2.92-.01,6.75-3.08,7.88-2.25,1.04-8.69,1.31-10.44-.78,0,0,0-4.22,0-4.22,0-.08.03-.17.1-.21,1.71.86,8.14,3.09,8.72.21-1.08-2.97-8.81-2.13-8.82-8.39.04-6.21,8.51-7.23,12.98-5.02.08-.17.02,4.21.04,4.23.02.24-.27.34-.45.23Z"/>
          </g>
        </g>
      </g>
    </g>
  </g>
</svg>