<?xml version="1.0" encoding="UTF-8"?>
<svg id="Layer_2" data-name="Layer 2" xmlns="http://www.w3.org/2000/svg" viewBox="0 0 48.49 48.49">
  <defs>
    <style>
      .cls-1 {
        fill: #fff;
      }

      .cls-2 {
        fill: #020b1d;
      }
    </style>
  </defs>
  <g id="_àð_1" data-name="˜àð_1">
    <g>
      <rect class="cls-2" width="48.49" height="48.49" rx="12.35" ry="12.35"/>
      <g>
        <path class="cls-1" d="M16.46,37.32c-1.62-.05-6.78-.24-7.21-1.95,0,0,0-4.63,0-4.63-.01-.19.17-.32.34-.19,2.71,1.71,7.4,2.86,10.17,1.35,3.26-2.96-2.34-4.91-4.56-5.76-6.9-2.11-8.48-10.63-1.9-13.96,3.05-1.35,7.89-1.37,11.19,0,.17.1.29.29.27.51v4.39c0,.07-.05.12-.1.17-2.47-1-5.37-1.73-8.1-1.13-2.45.31-3.03,3.17-.72,4.22,2.28,1.35,5.92,2.31,7.69,3.93,6.2,5.71.77,13.63-7.06,13.07Z"/>
        <path class="cls-1" d="M39.3,33.07c-.04,4.03.77,3.92-3.71,4.22-3.53-.02-5.41-1.86-5.4-5.55v-9.67c-3.79.01-2.41.55-2.63-4.17-.14-.61,2.42-.2,2.68-.31.44-6.24-.58-4.72,5.33-5.59.58-.37-.07,4.87.1,5.62,5.09.07,3.38-.88,3.64,4.22.02.12-.07.24-.19.27h-3.42c.17,1.37-.41,9.23.39,10.25.63,1.06,3.2.09,3.23.72Z"/>
      </g>
    </g>
  </g>
</svg>