<?xml version="1.0" encoding="UTF-8"?>
<svg id="Layer_2" data-name="Layer 2" xmlns="http://www.w3.org/2000/svg" viewBox="0 0 502.82 502.8">
  <defs>
    <style>
      .cls-1 {
        fill: #21759b;
      }
    </style>
  </defs>
  <g id="Layer_1-2" data-name="Layer 1">
    <g>
      <path class="cls-1" d="M35.74,251.39c0,85.37,49.61,159.14,121.55,194.1L54.41,163.62c-11.97,26.82-18.67,56.5-18.67,87.77Z"/>
      <path class="cls-1" d="M396.99,240.51c0-26.65-9.57-45.11-17.79-59.48-10.93-17.76-21.18-32.81-21.18-50.57,0-19.83,15.04-38.28,36.22-38.28.96,0,1.86.12,2.79.17-38.37-35.15-89.49-56.61-145.64-56.61-75.34,0-141.63,38.66-180.19,97.21,5.06.15,9.83.26,13.88.26,22.56,0,57.48-2.74,57.48-2.74,11.63-.69,13,16.39,1.38,17.76,0,0-11.68,1.37-24.68,2.06l78.54,233.6,47.2-141.55-33.6-92.06c-11.61-.68-22.62-2.06-22.62-2.06-11.62-.68-10.26-18.45,1.36-17.77,0,0,35.62,2.74,56.81,2.74,22.55,0,57.48-2.74,57.48-2.74,11.63-.69,13,16.39,1.38,17.76,0,0-11.71,1.37-24.68,2.06l77.94,231.84,21.51-71.88c9.32-29.83,16.42-51.26,16.42-69.72h0Z"/>
      <path class="cls-1" d="M255.19,270.26l-64.71,188.03c19.32,5.68,39.75,8.79,60.92,8.79,25.11,0,49.2-4.34,71.62-12.22-.58-.92-1.1-1.9-1.53-2.97l-66.3-181.62Z"/>
      <path class="cls-1" d="M440.64,147.92c.93,6.87,1.45,14.24,1.45,22.18,0,21.89-4.09,46.49-16.4,77.25l-65.88,190.47c64.12-37.39,107.24-106.85,107.24-186.42,0-37.5-9.57-72.75-26.42-103.48h0Z"/>
      <path class="cls-1" d="M251.4,0C112.78,0,0,112.77,0,251.39s112.78,251.41,251.4,251.41,251.41-112.77,251.41-251.41C502.81,112.77,390.02,0,251.4,0ZM251.4,491.28c-132.26,0-239.87-107.61-239.87-239.88S119.14,11.53,251.4,11.53s239.86,107.6,239.86,239.87-107.6,239.88-239.86,239.88Z"/>
    </g>
  </g>
</svg>